{
	"asset":{
		"generator":"Khronos glTF Blender I/O v4.0.44",
		"version":"2.0"
	},
	"scene":0,
	"scenes":[
		{
			"name":"Scene",
			"nodes":[
				0,
				1,
				2
			]
		}
	],
	"nodes":[
		{
			"mesh":0,
			"name":"Cylinder.013",
			"rotation":[
				0,
				-0.7071068286895752,
				0,
				0.7071068286895752
			],
			"scale":[
				1.2419230937957764,
				1.2419230937957764,
				1.2419230937957764
			],
			"translation":[
				1.153834342956543,
				0.1995571404695511,
				0.05905083566904068
			]
		},
		{
			"mesh":1,
			"name":"Cylinder.009",
			"rotation":[
				0,
				-0.7071068286895752,
				0,
				0.7071068286895752
			],
			"scale":[
				1.2419230937957764,
				1.2419230937957764,
				1.2419230937957764
			],
			"translation":[
				1.153834342956543,
				0.3707118630409241,
				0.05905083566904068
			]
		},
		{
			"mesh":2,
			"name":"Color sky_00000.001",
			"translation":[
				0.9854550957679749,
				0.10930538177490234,
				-0.11650371551513672
			]
		}
	],
	"animations":[
		{
			"channels":[
				{
					"sampler":0,
					"target":{
						"node":0,
						"path":"translation"
					}
				},
				{
					"sampler":1,
					"target":{
						"node":0,
						"path":"rotation"
					}
				},
				{
					"sampler":2,
					"target":{
						"node":0,
						"path":"scale"
					}
				}
			],
			"name":"Cylinder.013Action",
			"samplers":[
				{
					"input":11,
					"interpolation":"LINEAR",
					"output":12
				},
				{
					"input":11,
					"interpolation":"LINEAR",
					"output":13
				},
				{
					"input":11,
					"interpolation":"LINEAR",
					"output":14
				}
			]
		}
	],
	"meshes":[
		{
			"name":"Cylinder.015",
			"primitives":[
				{
					"attributes":{
						"POSITION":0,
						"NORMAL":1,
						"TEXCOORD_0":2
					},
					"indices":3
				}
			]
		},
		{
			"name":"Cylinder.011",
			"primitives":[
				{
					"attributes":{
						"POSITION":4,
						"NORMAL":5,
						"TEXCOORD_0":6
					},
					"indices":3
				}
			]
		},
		{
			"name":"Color sky_00000.001",
			"primitives":[
				{
					"attributes":{
						"POSITION":7,
						"NORMAL":8,
						"TEXCOORD_0":9
					},
					"indices":10
				}
			]
		}
	],
	"accessors":[
		{
			"bufferView":0,
			"componentType":5126,
			"count":192,
			"max":[
				0.057177525013685226,
				0.057177525013685226,
				0.00923908781260252
			],
			"min":[
				-0.057177525013685226,
				-0.057177525013685226,
				-0.011095619760453701
			],
			"type":"VEC3"
		},
		{
			"bufferView":1,
			"componentType":5126,
			"count":192,
			"type":"VEC3"
		},
		{
			"bufferView":2,
			"componentType":5126,
			"count":192,
			"type":"VEC2"
		},
		{
			"bufferView":3,
			"componentType":5123,
			"count":756,
			"type":"SCALAR"
		},
		{
			"bufferView":4,
			"componentType":5126,
			"count":192,
			"max":[
				0.057177525013685226,
				0.057177525013685226,
				0.00923908781260252
			],
			"min":[
				-0.057177525013685226,
				-0.057177525013685226,
				-0.011095619760453701
			],
			"type":"VEC3"
		},
		{
			"bufferView":5,
			"componentType":5126,
			"count":192,
			"type":"VEC3"
		},
		{
			"bufferView":6,
			"componentType":5126,
			"count":192,
			"type":"VEC2"
		},
		{
			"bufferView":7,
			"componentType":5126,
			"count":20,
			"max":[
				0.010866222903132439,
				0.051766037940979004,
				5.803430180861824e-09
			],
			"min":[
				-0.010866222903132439,
				-0.051766037940979004,
				-0.0037269259337335825
			],
			"type":"VEC3"
		},
		{
			"bufferView":8,
			"componentType":5126,
			"count":20,
			"type":"VEC3"
		},
		{
			"bufferView":9,
			"componentType":5126,
			"count":20,
			"type":"VEC2"
		},
		{
			"bufferView":10,
			"componentType":5123,
			"count":30,
			"type":"SCALAR"
		},
		{
			"bufferView":11,
			"componentType":5126,
			"count":1,
			"max":[
				3.5833333333333335
			],
			"min":[
				3.5833333333333335
			],
			"type":"SCALAR"
		},
		{
			"bufferView":12,
			"componentType":5126,
			"count":1,
			"type":"VEC3"
		},
		{
			"bufferView":13,
			"componentType":5126,
			"count":1,
			"type":"VEC4"
		},
		{
			"bufferView":14,
			"componentType":5126,
			"count":1,
			"type":"VEC3"
		}
	],
	"bufferViews":[
		{
			"buffer":0,
			"byteLength":2304,
			"byteOffset":0,
			"target":34962
		},
		{
			"buffer":0,
			"byteLength":2304,
			"byteOffset":2304,
			"target":34962
		},
		{
			"buffer":0,
			"byteLength":1536,
			"byteOffset":4608,
			"target":34962
		},
		{
			"buffer":0,
			"byteLength":1512,
			"byteOffset":6144,
			"target":34963
		},
		{
			"buffer":0,
			"byteLength":2304,
			"byteOffset":7656,
			"target":34962
		},
		{
			"buffer":0,
			"byteLength":2304,
			"byteOffset":9960,
			"target":34962
		},
		{
			"buffer":0,
			"byteLength":1536,
			"byteOffset":12264,
			"target":34962
		},
		{
			"buffer":0,
			"byteLength":240,
			"byteOffset":13800,
			"target":34962
		},
		{
			"buffer":0,
			"byteLength":240,
			"byteOffset":14040,
			"target":34962
		},
		{
			"buffer":0,
			"byteLength":160,
			"byteOffset":14280,
			"target":34962
		},
		{
			"buffer":0,
			"byteLength":60,
			"byteOffset":14440,
			"target":34963
		},
		{
			"buffer":0,
			"byteLength":4,
			"byteOffset":14500
		},
		{
			"buffer":0,
			"byteLength":12,
			"byteOffset":14504
		},
		{
			"buffer":0,
			"byteLength":16,
			"byteOffset":14516
		},
		{
			"buffer":0,
			"byteLength":12,
			"byteOffset":14532
		}
	],
	"buffers":[
		{
			"byteLength":14544,
			"uri":"2fans1Ram.bin"
		}
	]
}
