{
	"asset":{
		"generator":"Khronos glTF Blender I/O v4.0.44",
		"version":"2.0"
	},
	"scene":0,
	"scenes":[
		{
			"name":"Scene",
			"nodes":[
				0
			]
		}
	],
	"nodes":[
		{
			"mesh":0,
			"name":"Plane",
			"rotation":[
				0,
				0,
				-0.7071068286895752,
				0.7071068286895752
			],
			"scale":[
				-0.1268535852432251,
				-0.09351447969675064,
				-0.1268535852432251
			],
			"translation":[
				0.5746920108795166,
				0.37409383058547974,
				0.05652480944991112
			]
		}
	],
	"animations":[
		{
			"channels":[
				{
					"sampler":0,
					"target":{
						"node":0,
						"path":"translation"
					}
				},
				{
					"sampler":1,
					"target":{
						"node":0,
						"path":"rotation"
					}
				},
				{
					"sampler":2,
					"target":{
						"node":0,
						"path":"scale"
					}
				}
			],
			"name":"PlaneAction.001",
			"samplers":[
				{
					"input":4,
					"interpolation":"LINEAR",
					"output":5
				},
				{
					"input":4,
					"interpolation":"LINEAR",
					"output":6
				},
				{
					"input":4,
					"interpolation":"LINEAR",
					"output":7
				}
			]
		}
	],
	"materials":[
		{
			"doubleSided":true,
			"name":"Material.136",
			"pbrMetallicRoughness":{
				"baseColorFactor":[
					0.012252935208380222,
					0.012252935208380222,
					0.012252935208380222,
					1
				],
				"metallicFactor":0,
				"roughnessFactor":0.41925278306007385
			}
		}
	],
	"meshes":[
		{
			"name":"Plane.001",
			"primitives":[
				{
					"attributes":{
						"POSITION":0,
						"NORMAL":1,
						"TEXCOORD_0":2
					},
					"indices":3,
					"material":0
				}
			]
		}
	],
	"accessors":[
		{
			"bufferView":0,
			"componentType":5126,
			"count":25846,
			"max":[
				0.9090909957885742,
				0,
				0.5293313264846802
			],
			"min":[
				-0.8636363744735718,
				-0.00712681794539094,
				-0.5747860074043274
			],
			"type":"VEC3"
		},
		{
			"bufferView":1,
			"componentType":5126,
			"count":25846,
			"type":"VEC3"
		},
		{
			"bufferView":2,
			"componentType":5126,
			"count":25846,
			"type":"VEC2"
		},
		{
			"bufferView":3,
			"componentType":5123,
			"count":56646,
			"type":"SCALAR"
		},
		{
			"bufferView":4,
			"componentType":5126,
			"count":1,
			"max":[
				5.625
			],
			"min":[
				5.625
			],
			"type":"SCALAR"
		},
		{
			"bufferView":5,
			"componentType":5126,
			"count":1,
			"type":"VEC3"
		},
		{
			"bufferView":6,
			"componentType":5126,
			"count":1,
			"type":"VEC4"
		},
		{
			"bufferView":7,
			"componentType":5126,
			"count":1,
			"type":"VEC3"
		}
	],
	"bufferViews":[
		{
			"buffer":0,
			"byteLength":310152,
			"byteOffset":0,
			"target":34962
		},
		{
			"buffer":0,
			"byteLength":310152,
			"byteOffset":310152,
			"target":34962
		},
		{
			"buffer":0,
			"byteLength":206768,
			"byteOffset":620304,
			"target":34962
		},
		{
			"buffer":0,
			"byteLength":113292,
			"byteOffset":827072,
			"target":34963
		},
		{
			"buffer":0,
			"byteLength":4,
			"byteOffset":940364
		},
		{
			"buffer":0,
			"byteLength":12,
			"byteOffset":940368
		},
		{
			"buffer":0,
			"byteLength":16,
			"byteOffset":940380
		},
		{
			"buffer":0,
			"byteLength":12,
			"byteOffset":940396
		}
	],
	"buffers":[
		{
			"byteLength":940408,
			"uri":"computer-grates-2.bin"
		}
	]
}
