{
	"asset":{
		"generator":"Khronos glTF Blender I/O v4.0.44",
		"version":"2.0"
	},
	"extensionsUsed":[
		"KHR_materials_emissive_strength"
	],
	"scene":0,
	"scenes":[
		{
			"name":"Scene",
			"nodes":[
				0,
				1,
				2,
				3,
				4,
				5,
				6,
				7
			]
		}
	],
	"nodes":[
		{
			"mesh":0,
			"name":"Color sky_00000.001",
			"translation":[
				0.9854550957679749,
				0.10930538177490234,
				-0.11650371551513672
			]
		},
		{
			"mesh":1,
			"name":"Cylinder",
			"translation":[
				0.7900963425636292,
				0.3374364972114563,
				0.00884871557354927
			]
		},
		{
			"mesh":2,
			"name":"Cube.003",
			"scale":[
				0.004453923087567091,
				0.004453923087567091,
				0.00317497574724257
			],
			"translation":[
				0.9062120318412781,
				0.2912267744541168,
				-0.06608247011899948
			]
		},
		{
			"mesh":3,
			"name":"Cube.004",
			"scale":[
				0.004453923087567091,
				0.004453923087567091,
				0.00317497574724257
			],
			"translation":[
				0.935801088809967,
				0.2912267744541168,
				-0.06608247011899948
			]
		},
		{
			"mesh":4,
			"name":"Cylinder.008",
			"rotation":[
				0,
				0.7071068286895752,
				0,
				0.7071068286895752
			],
			"scale":[
				1.2419230937957764,
				1.2419230937957764,
				1.2419230937957764
			],
			"translation":[
				0.6104097962379456,
				0.3452596366405487,
				0.05905083566904068
			]
		},
		{
			"mesh":5,
			"name":"Cylinder.009",
			"rotation":[
				0,
				-0.7071068286895752,
				0,
				0.7071068286895752
			],
			"scale":[
				1.2419230937957764,
				1.2419230937957764,
				1.2419230937957764
			],
			"translation":[
				1.153834342956543,
				0.3707118630409241,
				0.05905083566904068
			]
		},
		{
			"mesh":6,
			"name":"Cylinder.013",
			"rotation":[
				0,
				-0.7071068286895752,
				0,
				0.7071068286895752
			],
			"scale":[
				1.2419230937957764,
				1.2419230937957764,
				1.2419230937957764
			],
			"translation":[
				1.153834342956543,
				0.1995571404695511,
				0.05905083566904068
			]
		},
		{
			"name":"Empty",
			"rotation":[
				0,
				-0.8348082304000854,
				0,
				0.5505408644676208
			],
			"translation":[
				0.8213324546813965,
				0.2749461531639099,
				0.02017647586762905
			]
		}
	],
	"animations":[
		{
			"channels":[
				{
					"sampler":0,
					"target":{
						"node":4,
						"path":"translation"
					}
				},
				{
					"sampler":1,
					"target":{
						"node":4,
						"path":"rotation"
					}
				}
			],
			"name":"Cylinder.008Action",
			"samplers":[
				{
					"input":26,
					"interpolation":"LINEAR",
					"output":27
				},
				{
					"input":26,
					"interpolation":"LINEAR",
					"output":28
				}
			]
		},
		{
			"channels":[
				{
					"sampler":0,
					"target":{
						"node":6,
						"path":"translation"
					}
				},
				{
					"sampler":1,
					"target":{
						"node":6,
						"path":"rotation"
					}
				},
				{
					"sampler":2,
					"target":{
						"node":6,
						"path":"scale"
					}
				}
			],
			"name":"Cylinder.013Action",
			"samplers":[
				{
					"input":29,
					"interpolation":"LINEAR",
					"output":30
				},
				{
					"input":29,
					"interpolation":"LINEAR",
					"output":31
				},
				{
					"input":29,
					"interpolation":"LINEAR",
					"output":32
				}
			]
		},
		{
			"channels":[
				{
					"sampler":0,
					"target":{
						"node":7,
						"path":"translation"
					}
				},
				{
					"sampler":1,
					"target":{
						"node":7,
						"path":"rotation"
					}
				}
			],
			"name":"EmptyAction.001",
			"samplers":[
				{
					"input":26,
					"interpolation":"LINEAR",
					"output":33
				},
				{
					"input":26,
					"interpolation":"LINEAR",
					"output":34
				}
			]
		}
	],
	"materials":[
		{
			"alphaMode":"BLEND",
			"doubleSided":true,
			"emissiveFactor":[
				1,
				1,
				1
			],
			"emissiveTexture":{
				"index":0
			},
			"extensions":{
				"KHR_materials_emissive_strength":{
					"emissiveStrength":55.089988708496094
				}
			},
			"name":"Color sky_00000.001",
			"pbrMetallicRoughness":{
				"baseColorFactor":[
					0,
					0,
					0,
					1
				]
			}
		},
		{
			"doubleSided":true,
			"emissiveFactor":[
				1,
				1,
				1
			],
			"emissiveTexture":{
				"index":1
			},
			"extensions":{
				"KHR_materials_emissive_strength":{
					"emissiveStrength":4.899999618530273
				}
			},
			"name":"Material.002",
			"pbrMetallicRoughness":{
				"baseColorFactor":[
					0,
					0,
					0,
					1
				]
			}
		},
		{
			"doubleSided":true,
			"emissiveFactor":[
				1,
				1,
				1
			],
			"emissiveTexture":{
				"index":2
			},
			"extensions":{
				"KHR_materials_emissive_strength":{
					"emissiveStrength":3.500001907348633
				}
			},
			"name":"Material.120",
			"pbrMetallicRoughness":{
				"baseColorFactor":[
					0,
					0,
					0,
					1
				]
			}
		},
		{
			"doubleSided":true,
			"emissiveFactor":[
				1,
				1,
				1
			],
			"emissiveTexture":{
				"index":3
			},
			"extensions":{
				"KHR_materials_emissive_strength":{
					"emissiveStrength":3.5
				}
			},
			"name":"Material.122",
			"pbrMetallicRoughness":{
				"baseColorFactor":[
					0,
					0,
					0,
					1
				]
			}
		},
		{
			"doubleSided":true,
			"name":"Material.025",
			"pbrMetallicRoughness":{
				"baseColorFactor":[
					1,
					1,
					1,
					0.5921229124069214
				],
				"baseColorTexture":{
					"index":4
				},
				"metallicFactor":0
			}
		},
		{
			"doubleSided":true,
			"name":"Material.146",
			"pbrMetallicRoughness":{
				"baseColorFactor":[
					1,
					1,
					1,
					0.5921229124069214
				],
				"baseColorTexture":{
					"index":5
				},
				"metallicFactor":0
			}
		},
		{
			"doubleSided":true,
			"name":"Material.147",
			"pbrMetallicRoughness":{
				"baseColorFactor":[
					1,
					1,
					1,
					0.5921229124069214
				],
				"baseColorTexture":{
					"index":6
				},
				"metallicFactor":0
			}
		}
	],
	"meshes":[
		{
			"name":"Color sky_00000.001",
			"primitives":[
				{
					"attributes":{
						"POSITION":0,
						"NORMAL":1,
						"TEXCOORD_0":2
					},
					"indices":3,
					"material":0
				}
			]
		},
		{
			"name":"Cylinder.002",
			"primitives":[
				{
					"attributes":{
						"POSITION":4,
						"NORMAL":5,
						"TEXCOORD_0":6
					},
					"indices":7,
					"material":1
				}
			]
		},
		{
			"name":"Cube.003",
			"primitives":[
				{
					"attributes":{
						"POSITION":8,
						"NORMAL":9,
						"TEXCOORD_0":10
					},
					"indices":11,
					"material":2
				}
			]
		},
		{
			"name":"Cube.004",
			"primitives":[
				{
					"attributes":{
						"POSITION":12,
						"NORMAL":13,
						"TEXCOORD_0":14
					},
					"indices":15,
					"material":3
				}
			]
		},
		{
			"name":"Cylinder.008",
			"primitives":[
				{
					"attributes":{
						"POSITION":16,
						"NORMAL":17,
						"TEXCOORD_0":18
					},
					"indices":7,
					"material":4
				}
			]
		},
		{
			"name":"Cylinder.011",
			"primitives":[
				{
					"attributes":{
						"POSITION":19,
						"NORMAL":20,
						"TEXCOORD_0":21
					},
					"indices":22,
					"material":5
				}
			]
		},
		{
			"name":"Cylinder.015",
			"primitives":[
				{
					"attributes":{
						"POSITION":23,
						"NORMAL":24,
						"TEXCOORD_0":25
					},
					"indices":22,
					"material":6
				}
			]
		}
	],
	"textures":[
		{
			"sampler":0,
			"source":0
		},
		{
			"sampler":0,
			"source":1
		},
		{
			"sampler":0,
			"source":2
		},
		{
			"sampler":0,
			"source":2
		},
		{
			"sampler":0,
			"source":3
		},
		{
			"sampler":0,
			"source":4
		},
		{
			"sampler":0,
			"source":4
		}
	],
	"images":[
		{
			"mimeType":"image/png",
			"name":"RAM color 3",
			"uri":"RAM%20color%203.png"
		},
		{
			"mimeType":"image/png",
			"name":"Fan test 4",
			"uri":"Fan%20test%204.png"
		},
		{
			"mimeType":"image/png",
			"name":"RAM color 2",
			"uri":"RAM%20color%202.png"
		},
		{
			"mimeType":"image/png",
			"name":"Blank Fan 2",
			"uri":"Blank%20Fan%202.png"
		},
		{
			"mimeType":"image/png",
			"name":"Blank Fan 2.mov",
			"uri":"Blank%20Fan%202_mov.png"
		}
	],
	"accessors":[
		{
			"bufferView":0,
			"componentType":5126,
			"count":20,
			"max":[
				0.010866222903132439,
				0.051766037940979004,
				5.803430180861824e-09
			],
			"min":[
				-0.010866222903132439,
				-0.051766037940979004,
				-0.0037269259337335825
			],
			"type":"VEC3"
		},
		{
			"bufferView":1,
			"componentType":5126,
			"count":20,
			"type":"VEC3"
		},
		{
			"bufferView":2,
			"componentType":5126,
			"count":20,
			"type":"VEC2"
		},
		{
			"bufferView":3,
			"componentType":5123,
			"count":30,
			"type":"SCALAR"
		},
		{
			"bufferView":4,
			"componentType":5126,
			"count":192,
			"max":[
				0.057177525013685226,
				0.057177525013685226,
				0.00923908781260252
			],
			"min":[
				-0.057177525013685226,
				-0.057177525013685226,
				-0.011095619760453701
			],
			"type":"VEC3"
		},
		{
			"bufferView":5,
			"componentType":5126,
			"count":192,
			"type":"VEC3"
		},
		{
			"bufferView":6,
			"componentType":5126,
			"count":192,
			"type":"VEC2"
		},
		{
			"bufferView":7,
			"componentType":5123,
			"count":666,
			"type":"SCALAR"
		},
		{
			"bufferView":8,
			"componentType":5126,
			"count":114,
			"max":[
				0.9669609665870667,
				32.196380615234375,
				1
			],
			"min":[
				-2.4530675411224365,
				-7.700348377227783,
				-2.5867562294006348
			],
			"type":"VEC3"
		},
		{
			"bufferView":9,
			"componentType":5126,
			"count":114,
			"type":"VEC3"
		},
		{
			"bufferView":10,
			"componentType":5126,
			"count":114,
			"type":"VEC2"
		},
		{
			"bufferView":11,
			"componentType":5123,
			"count":216,
			"type":"SCALAR"
		},
		{
			"bufferView":12,
			"componentType":5126,
			"count":114,
			"max":[
				0.9669609665870667,
				32.196380615234375,
				1
			],
			"min":[
				-2.4530675411224365,
				-7.700348377227783,
				-2.5867562294006348
			],
			"type":"VEC3"
		},
		{
			"bufferView":13,
			"componentType":5126,
			"count":114,
			"type":"VEC3"
		},
		{
			"bufferView":14,
			"componentType":5126,
			"count":114,
			"type":"VEC2"
		},
		{
			"bufferView":15,
			"componentType":5123,
			"count":216,
			"type":"SCALAR"
		},
		{
			"bufferView":16,
			"componentType":5126,
			"count":192,
			"max":[
				0.057177525013685226,
				0.057177525013685226,
				0.00923908781260252
			],
			"min":[
				-0.057177525013685226,
				-0.057177525013685226,
				-0.011095619760453701
			],
			"type":"VEC3"
		},
		{
			"bufferView":17,
			"componentType":5126,
			"count":192,
			"type":"VEC3"
		},
		{
			"bufferView":18,
			"componentType":5126,
			"count":192,
			"type":"VEC2"
		},
		{
			"bufferView":19,
			"componentType":5126,
			"count":192,
			"max":[
				0.057177525013685226,
				0.057177525013685226,
				0.00923908781260252
			],
			"min":[
				-0.057177525013685226,
				-0.057177525013685226,
				-0.011095619760453701
			],
			"type":"VEC3"
		},
		{
			"bufferView":20,
			"componentType":5126,
			"count":192,
			"type":"VEC3"
		},
		{
			"bufferView":21,
			"componentType":5126,
			"count":192,
			"type":"VEC2"
		},
		{
			"bufferView":22,
			"componentType":5123,
			"count":756,
			"type":"SCALAR"
		},
		{
			"bufferView":23,
			"componentType":5126,
			"count":192,
			"max":[
				0.057177525013685226,
				0.057177525013685226,
				0.00923908781260252
			],
			"min":[
				-0.057177525013685226,
				-0.057177525013685226,
				-0.011095619760453701
			],
			"type":"VEC3"
		},
		{
			"bufferView":24,
			"componentType":5126,
			"count":192,
			"type":"VEC3"
		},
		{
			"bufferView":25,
			"componentType":5126,
			"count":192,
			"type":"VEC2"
		},
		{
			"bufferView":26,
			"componentType":5126,
			"count":1,
			"max":[
				8.708333333333334
			],
			"min":[
				8.708333333333334
			],
			"type":"SCALAR"
		},
		{
			"bufferView":27,
			"componentType":5126,
			"count":1,
			"type":"VEC3"
		},
		{
			"bufferView":28,
			"componentType":5126,
			"count":1,
			"type":"VEC4"
		},
		{
			"bufferView":29,
			"componentType":5126,
			"count":1,
			"max":[
				3.5833333333333335
			],
			"min":[
				3.5833333333333335
			],
			"type":"SCALAR"
		},
		{
			"bufferView":30,
			"componentType":5126,
			"count":1,
			"type":"VEC3"
		},
		{
			"bufferView":31,
			"componentType":5126,
			"count":1,
			"type":"VEC4"
		},
		{
			"bufferView":32,
			"componentType":5126,
			"count":1,
			"type":"VEC3"
		},
		{
			"bufferView":33,
			"componentType":5126,
			"count":1,
			"type":"VEC3"
		},
		{
			"bufferView":34,
			"componentType":5126,
			"count":1,
			"type":"VEC4"
		}
	],
	"bufferViews":[
		{
			"buffer":0,
			"byteLength":240,
			"byteOffset":0,
			"target":34962
		},
		{
			"buffer":0,
			"byteLength":240,
			"byteOffset":240,
			"target":34962
		},
		{
			"buffer":0,
			"byteLength":160,
			"byteOffset":480,
			"target":34962
		},
		{
			"buffer":0,
			"byteLength":60,
			"byteOffset":640,
			"target":34963
		},
		{
			"buffer":0,
			"byteLength":2304,
			"byteOffset":700,
			"target":34962
		},
		{
			"buffer":0,
			"byteLength":2304,
			"byteOffset":3004,
			"target":34962
		},
		{
			"buffer":0,
			"byteLength":1536,
			"byteOffset":5308,
			"target":34962
		},
		{
			"buffer":0,
			"byteLength":1332,
			"byteOffset":6844,
			"target":34963
		},
		{
			"buffer":0,
			"byteLength":1368,
			"byteOffset":8176,
			"target":34962
		},
		{
			"buffer":0,
			"byteLength":1368,
			"byteOffset":9544,
			"target":34962
		},
		{
			"buffer":0,
			"byteLength":912,
			"byteOffset":10912,
			"target":34962
		},
		{
			"buffer":0,
			"byteLength":432,
			"byteOffset":11824,
			"target":34963
		},
		{
			"buffer":0,
			"byteLength":1368,
			"byteOffset":12256,
			"target":34962
		},
		{
			"buffer":0,
			"byteLength":1368,
			"byteOffset":13624,
			"target":34962
		},
		{
			"buffer":0,
			"byteLength":912,
			"byteOffset":14992,
			"target":34962
		},
		{
			"buffer":0,
			"byteLength":432,
			"byteOffset":15904,
			"target":34963
		},
		{
			"buffer":0,
			"byteLength":2304,
			"byteOffset":16336,
			"target":34962
		},
		{
			"buffer":0,
			"byteLength":2304,
			"byteOffset":18640,
			"target":34962
		},
		{
			"buffer":0,
			"byteLength":1536,
			"byteOffset":20944,
			"target":34962
		},
		{
			"buffer":0,
			"byteLength":2304,
			"byteOffset":22480,
			"target":34962
		},
		{
			"buffer":0,
			"byteLength":2304,
			"byteOffset":24784,
			"target":34962
		},
		{
			"buffer":0,
			"byteLength":1536,
			"byteOffset":27088,
			"target":34962
		},
		{
			"buffer":0,
			"byteLength":1512,
			"byteOffset":28624,
			"target":34963
		},
		{
			"buffer":0,
			"byteLength":2304,
			"byteOffset":30136,
			"target":34962
		},
		{
			"buffer":0,
			"byteLength":2304,
			"byteOffset":32440,
			"target":34962
		},
		{
			"buffer":0,
			"byteLength":1536,
			"byteOffset":34744,
			"target":34962
		},
		{
			"buffer":0,
			"byteLength":4,
			"byteOffset":36280
		},
		{
			"buffer":0,
			"byteLength":12,
			"byteOffset":36284
		},
		{
			"buffer":0,
			"byteLength":16,
			"byteOffset":36296
		},
		{
			"buffer":0,
			"byteLength":4,
			"byteOffset":36312
		},
		{
			"buffer":0,
			"byteLength":12,
			"byteOffset":36316
		},
		{
			"buffer":0,
			"byteLength":16,
			"byteOffset":36328
		},
		{
			"buffer":0,
			"byteLength":12,
			"byteOffset":36344
		},
		{
			"buffer":0,
			"byteLength":12,
			"byteOffset":36356
		},
		{
			"buffer":0,
			"byteLength":16,
			"byteOffset":36368
		}
	],
	"samplers":[
		{
			"magFilter":9729,
			"minFilter":9987,
			"wrapS":33071,
			"wrapT":33071
		}
	],
	"buffers":[
		{
			"byteLength":36384,
			"uri":"Computer-gltf-animated.bin"
		}
	]
}
