{
	"asset":{
		"generator":"Khronos glTF Blender I/O v4.0.44",
		"version":"2.0"
	},
	"scene":0,
	"scenes":[
		{
			"name":"Scene",
			"nodes":[
				0,
				1,
				2,
				3,
				4
			]
		}
	],
	"nodes":[
		{
			"mesh":0,
			"name":"Plane.006",
			"translation":[
				0.8937407732009888,
				-0.033123720437288284,
				0.018805623054504395
			]
		},
		{
			"mesh":1,
			"name":"grate2",
			"translation":[
				0.872093141078949,
				0.4966431260108948,
				0.013932449743151665
			]
		},
		{
			"mesh":2,
			"name":"Plane.003",
			"rotation":[
				0,
				0,
				-0.7071068286895752,
				0.7071068286895752
			],
			"scale":[
				-0.012196533381938934,
				-0.012196533381938934,
				-0.1134207472205162
			],
			"translation":[
				0.6076322197914124,
				0.0815567672252655,
				0.020458869636058807
			]
		},
		{
			"mesh":3,
			"name":"Plane",
			"rotation":[
				0,
				0,
				-0.7071068286895752,
				0.7071068286895752
			],
			"scale":[
				-0.1268535852432251,
				-0.09351447969675064,
				-0.1268535852432251
			],
			"translation":[
				0.5796331763267517,
				0.37409383058547974,
				0.06983053684234619
			]
		},
		{
			"mesh":4,
			"name":"Plane.002",
			"scale":[
				0.21181558072566986,
				0.21181558072566986,
				0.21181558072566986
			],
			"translation":[
				0.871421754360199,
				0.363553911447525,
				0.0012281984090805054
			]
		}
	],
	"animations":[
		{
			"channels":[
				{
					"sampler":0,
					"target":{
						"node":2,
						"path":"translation"
					}
				},
				{
					"sampler":1,
					"target":{
						"node":2,
						"path":"rotation"
					}
				},
				{
					"sampler":2,
					"target":{
						"node":2,
						"path":"scale"
					}
				}
			],
			"name":"Plane.003Action",
			"samplers":[
				{
					"input":24,
					"interpolation":"LINEAR",
					"output":25
				},
				{
					"input":24,
					"interpolation":"LINEAR",
					"output":26
				},
				{
					"input":24,
					"interpolation":"LINEAR",
					"output":27
				}
			]
		},
		{
			"channels":[
				{
					"sampler":0,
					"target":{
						"node":3,
						"path":"translation"
					}
				},
				{
					"sampler":1,
					"target":{
						"node":3,
						"path":"rotation"
					}
				},
				{
					"sampler":2,
					"target":{
						"node":3,
						"path":"scale"
					}
				}
			],
			"name":"PlaneAction.001",
			"samplers":[
				{
					"input":28,
					"interpolation":"LINEAR",
					"output":29
				},
				{
					"input":28,
					"interpolation":"LINEAR",
					"output":30
				},
				{
					"input":28,
					"interpolation":"LINEAR",
					"output":31
				}
			]
		},
		{
			"channels":[
				{
					"sampler":0,
					"target":{
						"node":4,
						"path":"translation"
					}
				},
				{
					"sampler":1,
					"target":{
						"node":4,
						"path":"rotation"
					}
				},
				{
					"sampler":2,
					"target":{
						"node":4,
						"path":"scale"
					}
				}
			],
			"name":"Plane.002Action",
			"samplers":[
				{
					"input":28,
					"interpolation":"LINEAR",
					"output":32
				},
				{
					"input":28,
					"interpolation":"LINEAR",
					"output":33
				},
				{
					"input":28,
					"interpolation":"LINEAR",
					"output":34
				}
			]
		}
	],
	"materials":[
		{
			"doubleSided":true,
			"name":"Material.136",
			"pbrMetallicRoughness":{
				"baseColorFactor":[
					0.012252935208380222,
					0.012252935208380222,
					0.012252935208380222,
					1
				],
				"metallicFactor":0,
				"roughnessFactor":0.41925278306007385
			}
		},
		{
			"doubleSided":true,
			"name":"Material.001",
			"pbrMetallicRoughness":{
				"baseColorFactor":[
					0.012252935208380222,
					0.012252935208380222,
					0.012252935208380222,
					1
				],
				"metallicFactor":0,
				"roughnessFactor":0.41925278306007385
			}
		},
		{
			"doubleSided":true,
			"name":"Material.002",
			"pbrMetallicRoughness":{
				"baseColorFactor":[
					0.012252935208380222,
					0.012252935208380222,
					0.012252935208380222,
					1
				],
				"metallicFactor":0,
				"roughnessFactor":0.41925278306007385
			}
		}
	],
	"meshes":[
		{
			"name":"Plane.005",
			"primitives":[
				{
					"attributes":{
						"POSITION":0,
						"NORMAL":1,
						"TEXCOORD_0":2
					},
					"indices":3,
					"material":0
				}
			]
		},
		{
			"name":"Cube.040",
			"primitives":[
				{
					"attributes":{
						"POSITION":4,
						"NORMAL":5,
						"TEXCOORD_0":6
					},
					"indices":7,
					"material":0
				}
			]
		},
		{
			"name":"Plane.003",
			"primitives":[
				{
					"attributes":{
						"POSITION":8,
						"NORMAL":9,
						"TEXCOORD_0":10
					},
					"indices":11,
					"material":0
				}
			]
		},
		{
			"name":"Plane.001",
			"primitives":[
				{
					"attributes":{
						"POSITION":12,
						"NORMAL":13,
						"TEXCOORD_0":14
					},
					"indices":15,
					"material":1
				},
				{
					"attributes":{
						"POSITION":16,
						"NORMAL":17,
						"TEXCOORD_0":18
					},
					"indices":19,
					"material":2
				}
			]
		},
		{
			"name":"Plane",
			"primitives":[
				{
					"attributes":{
						"POSITION":20,
						"NORMAL":21,
						"TEXCOORD_0":22
					},
					"indices":23,
					"material":0
				}
			]
		}
	],
	"accessors":[
		{
			"bufferView":0,
			"componentType":5126,
			"count":11320,
			"max":[
				-0.10215667635202408,
				0.04659904167056084,
				0.07445034384727478
			],
			"min":[
				-0.2983548641204834,
				0.04624985530972481,
				-0.07670799642801285
			],
			"type":"VEC3"
		},
		{
			"bufferView":1,
			"componentType":5126,
			"count":11320,
			"type":"VEC3"
		},
		{
			"bufferView":2,
			"componentType":5126,
			"count":11320,
			"type":"VEC2"
		},
		{
			"bufferView":3,
			"componentType":5123,
			"count":27552,
			"type":"SCALAR"
		},
		{
			"bufferView":4,
			"componentType":5126,
			"count":23002,
			"max":[
				0.2109837681055069,
				0.0011451992904767394,
				0.09084369987249374
			],
			"min":[
				-0.21179422736167908,
				0.0005245833308435977,
				-0.09071751683950424
			],
			"type":"VEC3"
		},
		{
			"bufferView":5,
			"componentType":5126,
			"count":23002,
			"type":"VEC3"
		},
		{
			"bufferView":6,
			"componentType":5126,
			"count":23002,
			"type":"VEC2"
		},
		{
			"bufferView":7,
			"componentType":5123,
			"count":55800,
			"type":"SCALAR"
		},
		{
			"bufferView":8,
			"componentType":5126,
			"count":416402,
			"max":[
				14.320000648498535,
				0.017818359658122063,
				1
			],
			"min":[
				-1,
				0,
				-1
			],
			"type":"VEC3"
		},
		{
			"bufferView":9,
			"componentType":5126,
			"count":416402,
			"type":"VEC3"
		},
		{
			"bufferView":10,
			"componentType":5126,
			"count":416402,
			"type":"VEC2"
		},
		{
			"bufferView":11,
			"componentType":5125,
			"count":1017408,
			"type":"SCALAR"
		},
		{
			"bufferView":12,
			"componentType":5126,
			"count":4729,
			"max":[
				0.9090909361839294,
				0,
				-0.39369210600852966
			],
			"min":[
				-0.8636363744735718,
				-0.007127294782549143,
				-0.5895050168037415
			],
			"type":"VEC3"
		},
		{
			"bufferView":13,
			"componentType":5126,
			"count":4729,
			"type":"VEC3"
		},
		{
			"bufferView":14,
			"componentType":5126,
			"count":4729,
			"type":"VEC2"
		},
		{
			"bufferView":15,
			"componentType":5123,
			"count":9696,
			"type":"SCALAR"
		},
		{
			"bufferView":16,
			"componentType":5126,
			"count":25842,
			"max":[
				0.909090518951416,
				-4.76837158203125e-07,
				0.6972168684005737
			],
			"min":[
				-0.8636366128921509,
				-0.007127294782549143,
				-0.4069003760814667
			],
			"type":"VEC3"
		},
		{
			"bufferView":17,
			"componentType":5126,
			"count":25842,
			"type":"VEC3"
		},
		{
			"bufferView":18,
			"componentType":5126,
			"count":25842,
			"type":"VEC2"
		},
		{
			"bufferView":19,
			"componentType":5123,
			"count":56640,
			"type":"SCALAR"
		},
		{
			"bufferView":20,
			"componentType":5126,
			"count":79492,
			"max":[
				1,
				0.6360677480697632,
				0.49626287817955017
			],
			"min":[
				-1,
				0.6360673904418945,
				-0.37500011920928955
			],
			"type":"VEC3"
		},
		{
			"bufferView":21,
			"componentType":5126,
			"count":79492,
			"type":"VEC3"
		},
		{
			"bufferView":22,
			"componentType":5126,
			"count":79492,
			"type":"VEC2"
		},
		{
			"bufferView":23,
			"componentType":5125,
			"count":246438,
			"type":"SCALAR"
		},
		{
			"bufferView":24,
			"componentType":5126,
			"count":1,
			"max":[
				3.7916666666666665
			],
			"min":[
				3.7916666666666665
			],
			"type":"SCALAR"
		},
		{
			"bufferView":25,
			"componentType":5126,
			"count":1,
			"type":"VEC3"
		},
		{
			"bufferView":26,
			"componentType":5126,
			"count":1,
			"type":"VEC4"
		},
		{
			"bufferView":27,
			"componentType":5126,
			"count":1,
			"type":"VEC3"
		},
		{
			"bufferView":28,
			"componentType":5126,
			"count":1,
			"max":[
				5.625
			],
			"min":[
				5.625
			],
			"type":"SCALAR"
		},
		{
			"bufferView":29,
			"componentType":5126,
			"count":1,
			"type":"VEC3"
		},
		{
			"bufferView":30,
			"componentType":5126,
			"count":1,
			"type":"VEC4"
		},
		{
			"bufferView":31,
			"componentType":5126,
			"count":1,
			"type":"VEC3"
		},
		{
			"bufferView":32,
			"componentType":5126,
			"count":1,
			"type":"VEC3"
		},
		{
			"bufferView":33,
			"componentType":5126,
			"count":1,
			"type":"VEC4"
		},
		{
			"bufferView":34,
			"componentType":5126,
			"count":1,
			"type":"VEC3"
		}
	],
	"bufferViews":[
		{
			"buffer":0,
			"byteLength":135840,
			"byteOffset":0,
			"target":34962
		},
		{
			"buffer":0,
			"byteLength":135840,
			"byteOffset":135840,
			"target":34962
		},
		{
			"buffer":0,
			"byteLength":90560,
			"byteOffset":271680,
			"target":34962
		},
		{
			"buffer":0,
			"byteLength":55104,
			"byteOffset":362240,
			"target":34963
		},
		{
			"buffer":0,
			"byteLength":276024,
			"byteOffset":417344,
			"target":34962
		},
		{
			"buffer":0,
			"byteLength":276024,
			"byteOffset":693368,
			"target":34962
		},
		{
			"buffer":0,
			"byteLength":184016,
			"byteOffset":969392,
			"target":34962
		},
		{
			"buffer":0,
			"byteLength":111600,
			"byteOffset":1153408,
			"target":34963
		},
		{
			"buffer":0,
			"byteLength":4996824,
			"byteOffset":1265008,
			"target":34962
		},
		{
			"buffer":0,
			"byteLength":4996824,
			"byteOffset":6261832,
			"target":34962
		},
		{
			"buffer":0,
			"byteLength":3331216,
			"byteOffset":11258656,
			"target":34962
		},
		{
			"buffer":0,
			"byteLength":4069632,
			"byteOffset":14589872,
			"target":34963
		},
		{
			"buffer":0,
			"byteLength":56748,
			"byteOffset":18659504,
			"target":34962
		},
		{
			"buffer":0,
			"byteLength":56748,
			"byteOffset":18716252,
			"target":34962
		},
		{
			"buffer":0,
			"byteLength":37832,
			"byteOffset":18773000,
			"target":34962
		},
		{
			"buffer":0,
			"byteLength":19392,
			"byteOffset":18810832,
			"target":34963
		},
		{
			"buffer":0,
			"byteLength":310104,
			"byteOffset":18830224,
			"target":34962
		},
		{
			"buffer":0,
			"byteLength":310104,
			"byteOffset":19140328,
			"target":34962
		},
		{
			"buffer":0,
			"byteLength":206736,
			"byteOffset":19450432,
			"target":34962
		},
		{
			"buffer":0,
			"byteLength":113280,
			"byteOffset":19657168,
			"target":34963
		},
		{
			"buffer":0,
			"byteLength":953904,
			"byteOffset":19770448,
			"target":34962
		},
		{
			"buffer":0,
			"byteLength":953904,
			"byteOffset":20724352,
			"target":34962
		},
		{
			"buffer":0,
			"byteLength":635936,
			"byteOffset":21678256,
			"target":34962
		},
		{
			"buffer":0,
			"byteLength":985752,
			"byteOffset":22314192,
			"target":34963
		},
		{
			"buffer":0,
			"byteLength":4,
			"byteOffset":23299944
		},
		{
			"buffer":0,
			"byteLength":12,
			"byteOffset":23299948
		},
		{
			"buffer":0,
			"byteLength":16,
			"byteOffset":23299960
		},
		{
			"buffer":0,
			"byteLength":12,
			"byteOffset":23299976
		},
		{
			"buffer":0,
			"byteLength":4,
			"byteOffset":23299988
		},
		{
			"buffer":0,
			"byteLength":12,
			"byteOffset":23299992
		},
		{
			"buffer":0,
			"byteLength":16,
			"byteOffset":23300004
		},
		{
			"buffer":0,
			"byteLength":12,
			"byteOffset":23300020
		},
		{
			"buffer":0,
			"byteLength":12,
			"byteOffset":23300032
		},
		{
			"buffer":0,
			"byteLength":16,
			"byteOffset":23300044
		},
		{
			"buffer":0,
			"byteLength":12,
			"byteOffset":23300060
		}
	],
	"buffers":[
		{
			"byteLength":23300072,
			"uri":"Computer_grates.bin"
		}
	]
}
