{
	"asset":{
		"generator":"Khronos glTF Blender I/O v4.0.44",
		"version":"2.0"
	},
	"scene":0,
	"scenes":[
		{
			"name":"Scene",
			"nodes":[
				0
			]
		}
	],
	"nodes":[
		{
			"mesh":0,
			"name":"Cylinder.008",
			"rotation":[
				0,
				0.7071068286895752,
				0,
				0.7071068286895752
			],
			"scale":[
				1.2419230937957764,
				1.2419230937957764,
				1.2419230937957764
			],
			"translation":[
				0.6104097962379456,
				0.3452596366405487,
				0.05905083566904068
			]
		}
	],
	"animations":[
		{
			"channels":[
				{
					"sampler":0,
					"target":{
						"node":0,
						"path":"translation"
					}
				},
				{
					"sampler":1,
					"target":{
						"node":0,
						"path":"rotation"
					}
				}
			],
			"name":"Cylinder.008Action",
			"samplers":[
				{
					"input":4,
					"interpolation":"LINEAR",
					"output":5
				},
				{
					"input":4,
					"interpolation":"LINEAR",
					"output":6
				}
			]
		}
	],
	"meshes":[
		{
			"name":"Cylinder.008",
			"primitives":[
				{
					"attributes":{
						"POSITION":0,
						"NORMAL":1,
						"TEXCOORD_0":2
					},
					"indices":3
				}
			]
		}
	],
	"accessors":[
		{
			"bufferView":0,
			"componentType":5126,
			"count":192,
			"max":[
				0.057177525013685226,
				0.057177525013685226,
				0.00923908781260252
			],
			"min":[
				-0.057177525013685226,
				-0.057177525013685226,
				-0.011095619760453701
			],
			"type":"VEC3"
		},
		{
			"bufferView":1,
			"componentType":5126,
			"count":192,
			"type":"VEC3"
		},
		{
			"bufferView":2,
			"componentType":5126,
			"count":192,
			"type":"VEC2"
		},
		{
			"bufferView":3,
			"componentType":5123,
			"count":666,
			"type":"SCALAR"
		},
		{
			"bufferView":4,
			"componentType":5126,
			"count":1,
			"max":[
				8.708333333333334
			],
			"min":[
				8.708333333333334
			],
			"type":"SCALAR"
		},
		{
			"bufferView":5,
			"componentType":5126,
			"count":1,
			"type":"VEC3"
		},
		{
			"bufferView":6,
			"componentType":5126,
			"count":1,
			"type":"VEC4"
		}
	],
	"bufferViews":[
		{
			"buffer":0,
			"byteLength":2304,
			"byteOffset":0,
			"target":34962
		},
		{
			"buffer":0,
			"byteLength":2304,
			"byteOffset":2304,
			"target":34962
		},
		{
			"buffer":0,
			"byteLength":1536,
			"byteOffset":4608,
			"target":34962
		},
		{
			"buffer":0,
			"byteLength":1332,
			"byteOffset":6144,
			"target":34963
		},
		{
			"buffer":0,
			"byteLength":4,
			"byteOffset":7476
		},
		{
			"buffer":0,
			"byteLength":12,
			"byteOffset":7480
		},
		{
			"buffer":0,
			"byteLength":16,
			"byteOffset":7492
		}
	],
	"buffers":[
		{
			"byteLength":7508,
			"uri":"fan.bin"
		}
	]
}
