{
	"asset":{
		"generator":"Khronos glTF Blender I/O v4.0.44",
		"version":"2.0"
	},
	"scene":0,
	"scenes":[
		{
			"name":"Scene",
			"nodes":[
				0,
				1
			]
		}
	],
	"nodes":[
		{
			"mesh":0,
			"name":"Cube.004",
			"scale":[
				0.004453923087567091,
				0.004453923087567091,
				0.00317497574724257
			],
			"translation":[
				0.935801088809967,
				0.2912267744541168,
				-0.06608247011899948
			]
		},
		{
			"mesh":1,
			"name":"Cube.003",
			"scale":[
				0.004453923087567091,
				0.004453923087567091,
				0.00317497574724257
			],
			"translation":[
				0.9062120318412781,
				0.2912267744541168,
				-0.06608247011899948
			]
		}
	],
	"meshes":[
		{
			"name":"Cube.004",
			"primitives":[
				{
					"attributes":{
						"POSITION":0,
						"NORMAL":1,
						"TEXCOORD_0":2
					},
					"indices":3
				}
			]
		},
		{
			"name":"Cube.003",
			"primitives":[
				{
					"attributes":{
						"POSITION":4,
						"NORMAL":5,
						"TEXCOORD_0":6
					},
					"indices":7
				}
			]
		}
	],
	"accessors":[
		{
			"bufferView":0,
			"componentType":5126,
			"count":114,
			"max":[
				0.9669609665870667,
				32.196380615234375,
				1
			],
			"min":[
				-2.4530675411224365,
				-7.700348377227783,
				-2.5867562294006348
			],
			"type":"VEC3"
		},
		{
			"bufferView":1,
			"componentType":5126,
			"count":114,
			"type":"VEC3"
		},
		{
			"bufferView":2,
			"componentType":5126,
			"count":114,
			"type":"VEC2"
		},
		{
			"bufferView":3,
			"componentType":5123,
			"count":216,
			"type":"SCALAR"
		},
		{
			"bufferView":4,
			"componentType":5126,
			"count":114,
			"max":[
				0.9669609665870667,
				32.196380615234375,
				1
			],
			"min":[
				-2.4530675411224365,
				-7.700348377227783,
				-2.5867562294006348
			],
			"type":"VEC3"
		},
		{
			"bufferView":5,
			"componentType":5126,
			"count":114,
			"type":"VEC3"
		},
		{
			"bufferView":6,
			"componentType":5126,
			"count":114,
			"type":"VEC2"
		},
		{
			"bufferView":7,
			"componentType":5123,
			"count":216,
			"type":"SCALAR"
		}
	],
	"bufferViews":[
		{
			"buffer":0,
			"byteLength":1368,
			"byteOffset":0,
			"target":34962
		},
		{
			"buffer":0,
			"byteLength":1368,
			"byteOffset":1368,
			"target":34962
		},
		{
			"buffer":0,
			"byteLength":912,
			"byteOffset":2736,
			"target":34962
		},
		{
			"buffer":0,
			"byteLength":432,
			"byteOffset":3648,
			"target":34963
		},
		{
			"buffer":0,
			"byteLength":1368,
			"byteOffset":4080,
			"target":34962
		},
		{
			"buffer":0,
			"byteLength":1368,
			"byteOffset":5448,
			"target":34962
		},
		{
			"buffer":0,
			"byteLength":912,
			"byteOffset":6816,
			"target":34962
		},
		{
			"buffer":0,
			"byteLength":432,
			"byteOffset":7728,
			"target":34963
		}
	],
	"buffers":[
		{
			"byteLength":8160,
			"uri":"RAM.bin"
		}
	]
}
